<svg xmlns="http://www.w3.org/2000/svg" width="512" height="512" viewBox="0 0 512 512">
  <defs>
    <linearGradient id="bg" x1="0%" y1="100%" x2="100%" y2="0%">
      <stop offset="0%" stop-color="#0891b2"/>
      <stop offset="100%" stop-color="#6366f1"/>
    </linearGradient>
    <linearGradient id="purple" x1="0%" y1="0%" x2="100%" y2="100%">
      <stop offset="0%" stop-color="#c084fc"/>
      <stop offset="100%" stop-color="#4f46e5"/>
    </linearGradient>
  </defs>
  <rect width="512" height="512" rx="118" fill="#050816"/>
  <circle cx="256" cy="256" r="180" fill="#a855f7" opacity="0.12"/>
  <g transform="translate(256 256)" fill="none" stroke-linecap="round" stroke-width="22">
    <path d="M0 -120 A120 120 0 0 1 114 -36" stroke="url(#bg)"/>
    <path d="M114 -36 A120 120 0 0 1 74 96" stroke="url(#bg)"/>
    <path d="M74 96 A120 120 0 0 1 -74 96" stroke="url(#purple)"/>
    <path d="M-74 96 A120 120 0 0 1 -114 -36" stroke="url(#purple)"/>
    <path d="M-114 -36 A120 120 0 0 1 0 -120" stroke="url(#bg)"/>
  </g>
  <circle cx="256" cy="256" r="62" fill="#0b1020" stroke="url(#purple)" stroke-width="4"/>
  <text x="256" y="276" text-anchor="middle" font-family="'Space Grotesk', Arial, sans-serif" font-size="44" font-weight="700" fill="#ffffff">AI</text>
</svg>
